<svg id="Capa_1" enable-background="new 0 0 512 512" height="512" viewBox="0 0 512 512" width="512" xmlns="http://www.w3.org/2000/svg"><path d="m256 7.5c-137.243 0-248.5 111.257-248.5 248.5s111.257 248.5 248.5 248.5 248.5-111.257 248.5-248.5-111.257-248.5-248.5-248.5zm18.738 267.238c-10.349 10.349-27.128 10.349-37.477 0s-10.349-27.128 0-37.477 27.128-10.349 37.477 0 10.349 27.128 0 37.477z" fill="#fdd277"/><path d="m256 7.5c-5.546 0-11.044.201-16.5.559 129.548 8.495 232 116.245 232 247.941s-102.452 239.447-232 247.941c5.456.358 10.954.559 16.5.559 137.243 0 248.5-111.257 248.5-248.5s-111.257-248.5-248.5-248.5z" fill="#ffba69"/><path d="m321.575 181.575 99.829-111.031c26.137 23.311 47.052 51.885 61.372 83.845 14.321 31.961 21.724 66.59 21.724 101.611h-146.5z" fill="#fef5e4"/><path d="m482.776 154.39c-14.32-31.96-35.236-60.535-61.372-83.845l-15.445 17.317c18.049 19.64 32.867 42.089 43.817 66.528 14.32 31.96 21.724 66.589 21.724 101.61h33c0-35.021-7.403-69.651-21.724-101.61z" fill="#fee4c2"/><path d="m190.433 330.433-99.837 111.023c-26.136-23.311-47.052-51.885-61.372-83.845s-21.724-66.59-21.724-101.611h146.5z" fill="#fef5e4"/><path d="m256 148c-59.647 0-108 48.353-108 108s48.353 108 108 108 108-48.353 108-108-48.353-108-108-108zm18.738 126.738c-10.349 10.349-27.128 10.349-37.477 0s-10.349-27.128 0-37.477 27.128-10.349 37.477 0 10.349 27.128 0 37.477z" fill="#f88d26"/><path d="m511.914 249.383c-3.463-137.111-118.778-249.383-255.914-249.383-46.576 0-92.175 12.633-131.869 36.533-8.288 4.99-.55 17.841 7.737 12.851 37.359-22.494 80.282-34.384 124.132-34.384 57.243 0 111.428 19.837 154.739 56.235l-83.653 93.794c-19.614-15.361-44.299-24.529-71.086-24.529-61.167 0-111.372 47.796-115.25 108h-125.623c2.093-67.492 32.352-131.018 83.765-175.257 7.334-6.31-2.451-17.682-9.783-11.37-56.63 48.728-89.109 119.484-89.109 194.127 0 139.667 116.285 256 256 256 68.38 0 132.667-26.629 181.02-74.98 48.351-48.353 74.98-112.64 74.98-181.02 0-2.21-.03-4.416-.086-6.617zm-89.857-168.044c45.665 43.326 72.905 104.25 74.815 167.161h-125.622c-1.839-28.538-14.085-54.286-32.978-73.478l83.659-93.801c.042.04.085.078.126.118zm-332.114 349.322c-45.665-43.326-72.905-104.25-74.816-167.161h125.623c1.839 28.538 14.085 54.286 32.978 73.478l-83.659 93.801c-.042-.04-.085-.078-.126-.118zm336.47-4.248c-45.519 45.519-106.039 70.587-170.413 70.587-57.243 0-111.428-19.837-154.739-56.235l83.653-93.794c19.614 15.361 44.299 24.529 71.086 24.529 20.304 0 40.276-5.345 57.755-15.457 8.374-4.844.864-17.827-7.511-12.984-15.2 8.793-32.574 13.441-50.244 13.441-55.416 0-100.5-45.084-100.5-100.5s45.084-100.5 100.5-100.5 100.5 45.084 100.5 100.5c0 22.458-7.241 43.693-20.94 61.413-5.917 7.654 5.949 16.828 11.867 9.175 14.214-18.385 22.356-40.063 23.813-63.087h125.633c-1.87 61.561-26.714 119.165-70.46 162.912z"/><path d="m256 222c-9.082 0-17.62 3.537-24.042 9.958-6.421 6.422-9.958 14.96-9.958 24.042s3.537 17.62 9.958 24.042c6.422 6.421 14.96 9.958 24.042 9.958s17.62-3.537 24.042-9.958c6.421-6.422 9.958-14.96 9.958-24.042s-3.537-17.62-9.958-24.042c-6.422-6.421-14.96-9.958-24.042-9.958zm13.435 47.435c-3.589 3.589-8.36 5.565-13.435 5.565s-9.846-1.976-13.435-5.565-5.565-8.36-5.565-13.435 1.976-9.846 5.565-13.435 8.36-5.565 13.435-5.565 9.846 1.976 13.435 5.565 5.565 8.36 5.565 13.435-1.976 9.846-5.565 13.435z"/><path d="m369.291 181.209c1.919 0 3.839-.732 5.303-2.197l52.419-52.419c6.939-6.938-3.97-17.243-10.606-10.606l-52.419 52.419c-4.576 4.574-1.053 12.803 5.303 12.803z"/><path d="m136.406 331.987-52.419 52.419c-6.664 6.663 3.786 17.426 10.606 10.606l52.419-52.419c6.94-6.937-3.969-17.242-10.606-10.606z"/></svg>